<svg width="136" height="136" viewBox="0 0 136 136" fill="none" xmlns="http://www.w3.org/2000/svg">
<path d="M135.291 67.9995C135.291 30.8354 105.164 0.708008 67.9995 0.708008C30.8354 0.708008 0.708008 30.8354 0.708008 67.9995C0.708008 105.164 30.8354 135.291 67.9995 135.291C105.164 135.291 135.291 105.164 135.291 67.9995Z" fill="url(#paint0_radial_43_2)" stroke="url(#paint1_linear_43_2)" stroke-width="1.417"/>
<path d="M121.04 68C121.04 38.7068 97.2932 14.96 68 14.96C38.7068 14.96 14.96 38.7068 14.96 68C14.96 97.2932 38.7068 121.04 68 121.04C97.2932 121.04 121.04 97.2932 121.04 68Z" fill="url(#paint2_radial_43_2)"/>
<g filter="url(#filter0_f_43_2)">
<path d="M68 106.25C89.1249 106.25 106.25 89.1249 106.25 68C106.25 46.8751 89.1249 29.75 68 29.75C46.8751 29.75 29.75 46.8751 29.75 68C29.75 89.1249 46.8751 106.25 68 106.25Z" fill="url(#paint3_linear_43_2)"/>
</g>
<g filter="url(#filter1_f_43_2)">
<path d="M68 100.583C85.9951 100.583 100.583 85.9951 100.583 68C100.583 50.0049 85.9951 35.417 68 35.417C50.0049 35.417 35.417 50.0049 35.417 68C35.417 85.9951 50.0049 100.583 68 100.583Z" fill="#5F3DE6"/>
</g>
<path d="M52.2401 95.1435C50.268 95.1435 48.4616 94.6629 46.821 93.7017C45.1804 92.724 43.8712 91.4148 42.8935 89.7741C41.9323 88.1335 41.4517 86.3272 41.4517 84.3551C41.4517 82.3665 41.9323 80.5518 42.8935 78.9112C43.8712 77.2706 45.1804 75.9614 46.821 74.9837C48.4616 74.0059 50.268 73.517 52.2401 73.517H58.0071V63.5241H52.2401C50.268 63.5241 48.4616 63.0436 46.821 62.0824C45.1804 61.1046 43.8712 59.8037 42.8935 58.1797C41.9323 56.5391 41.4517 54.7244 41.4517 52.7358C41.4517 50.7472 41.9323 48.9408 42.8935 47.3168C43.8712 45.6761 45.1804 44.3752 46.821 43.4141C48.4616 42.4363 50.268 41.9474 52.2401 41.9474C54.2287 41.9474 56.0433 42.4363 57.6839 43.4141C59.3246 44.3752 60.6338 45.6761 61.6115 47.3168C62.5893 48.9408 63.0781 50.7472 63.0781 52.7358V58.4531H73.071V52.7358C73.071 50.7472 73.5516 48.9408 74.5128 47.3168C75.4905 45.6761 76.7914 44.3752 78.4155 43.4141C80.0561 42.4363 81.8707 41.9474 83.8594 41.9474C85.848 41.9474 87.6544 42.4363 89.2784 43.4141C90.919 44.3752 92.2199 45.6761 93.1811 47.3168C94.1589 48.9408 94.6477 50.7472 94.6477 52.7358C94.6477 54.7244 94.1589 56.5391 93.1811 58.1797C92.2199 59.8037 90.919 61.1046 89.2784 62.0824C87.6544 63.0436 85.848 63.5241 83.8594 63.5241H78.142V73.517H83.8594C85.848 73.517 87.6544 74.0059 89.2784 74.9837C90.919 75.9614 92.2199 77.2706 93.1811 78.9112C94.1589 80.5518 94.6477 82.3665 94.6477 84.3551C94.6477 86.3272 94.1589 88.1335 93.1811 89.7741C92.2199 91.4148 90.919 92.724 89.2784 93.7017C87.6544 94.6629 85.848 95.1435 83.8594 95.1435C81.8707 95.1435 80.0561 94.6629 78.4155 93.7017C76.7914 92.724 75.4905 91.4148 74.5128 89.7741C73.5516 88.1335 73.071 86.3272 73.071 84.3551V78.5881H63.0781V84.3551C63.0781 86.3272 62.5893 88.1335 61.6115 89.7741C60.6338 91.4148 59.3246 92.724 57.6839 93.7017C56.0433 94.6629 54.2287 95.1435 52.2401 95.1435ZM52.2401 90.0724C53.3007 90.0724 54.2618 89.8156 55.1236 89.3018C56.0019 88.7881 56.6979 88.1004 57.2116 87.2386C57.742 86.3603 58.0071 85.3991 58.0071 84.3551V78.5881H52.2401C51.196 78.5881 50.2348 78.8532 49.3565 79.3835C48.4948 79.8973 47.8071 80.5933 47.2933 81.4716C46.7796 82.3333 46.5227 83.2945 46.5227 84.3551C46.5227 85.3991 46.7796 86.3603 47.2933 87.2386C47.8071 88.1004 48.4948 88.7881 49.3565 89.3018C50.2348 89.8156 51.196 90.0724 52.2401 90.0724ZM52.2401 58.4531H58.0071V52.7358C58.0071 51.6752 57.742 50.714 57.2116 49.8523C56.6979 48.9905 56.0019 48.3028 55.1236 47.7891C54.2618 47.2753 53.3007 47.0185 52.2401 47.0185C51.196 47.0185 50.2348 47.2753 49.3565 47.7891C48.4948 48.3028 47.8071 48.9905 47.2933 49.8523C46.7796 50.714 46.5227 51.6752 46.5227 52.7358C46.5227 53.7964 46.7796 54.7659 47.2933 55.6442C47.8071 56.5059 48.4948 57.1937 49.3565 57.7074C50.2348 58.2045 51.196 58.4531 52.2401 58.4531ZM78.142 58.4531H83.8594C84.92 58.4531 85.8812 58.2045 86.7429 57.7074C87.6046 57.1937 88.2924 56.5059 88.8061 55.6442C89.3198 54.7659 89.5767 53.7964 89.5767 52.7358C89.5767 51.6752 89.3198 50.714 88.8061 49.8523C88.2924 48.9905 87.6046 48.3028 86.7429 47.7891C85.8812 47.2753 84.92 47.0185 83.8594 47.0185C82.7988 47.0185 81.8293 47.2753 80.951 47.7891C80.0893 48.3028 79.4015 48.9905 78.8878 49.8523C78.3906 50.714 78.142 51.6752 78.142 52.7358V58.4531ZM83.8594 90.0724C84.92 90.0724 85.8812 89.8156 86.7429 89.3018C87.6046 88.7881 88.2924 88.1004 88.8061 87.2386C89.3198 86.3603 89.5767 85.3991 89.5767 84.3551C89.5767 83.2945 89.3198 82.3333 88.8061 81.4716C88.2924 80.5933 87.6046 79.8973 86.7429 79.3835C85.8812 78.8532 84.92 78.5881 83.8594 78.5881H78.142V84.3551C78.142 85.3991 78.3906 86.3603 78.8878 87.2386C79.4015 88.1004 80.0893 88.7881 80.951 89.3018C81.8293 89.8156 82.7988 90.0724 83.8594 90.0724ZM63.0781 73.517H73.071V63.5241H63.0781V73.517Z" fill="white"/>
<defs>
<filter id="filter0_f_43_2" x="14.166" y="14.166" width="107.668" height="107.668" filterUnits="userSpaceOnUse" color-interpolation-filters="sRGB">
<feFlood flood-opacity="0" result="BackgroundImageFix"/>
<feBlend mode="normal" in="SourceGraphic" in2="BackgroundImageFix" result="shape"/>
<feGaussianBlur stdDeviation="7.792" result="effect1_foregroundBlur_43_2"/>
</filter>
<filter id="filter1_f_43_2" x="18.417" y="18.417" width="99.166" height="99.166" filterUnits="userSpaceOnUse" color-interpolation-filters="sRGB">
<feFlood flood-opacity="0" result="BackgroundImageFix"/>
<feBlend mode="normal" in="SourceGraphic" in2="BackgroundImageFix" result="shape"/>
<feGaussianBlur stdDeviation="8.5" result="effect1_foregroundBlur_43_2"/>
</filter>
<radialGradient id="paint0_radial_43_2" cx="0" cy="0" r="1" gradientUnits="userSpaceOnUse" gradientTransform="translate(68 68) rotate(89.4208) scale(73.9168 73.9167)">
<stop stop-color="#6646EB"/>
<stop offset="1" stop-color="#351A95"/>
</radialGradient>
<linearGradient id="paint1_linear_43_2" x1="68" y1="7.77667e-06" x2="68" y2="136" gradientUnits="userSpaceOnUse">
<stop stop-color="white"/>
<stop offset="1" stop-color="#614BB1" stop-opacity="0"/>
</linearGradient>
<radialGradient id="paint2_radial_43_2" cx="0" cy="0" r="1" gradientUnits="userSpaceOnUse" gradientTransform="translate(68 68) rotate(89.4208) scale(57.6551 57.655)">
<stop stop-color="#6646EB"/>
<stop offset="1" stop-color="#351A95"/>
</radialGradient>
<linearGradient id="paint3_linear_43_2" x1="68" y1="29.75" x2="68" y2="106.25" gradientUnits="userSpaceOnUse">
<stop stop-color="#A75DE7"/>
<stop offset="1" stop-color="#4435FF"/>
</linearGradient>
</defs>
</svg>
